<?xml version="1.0" encoding="UTF-8"?>
<svg id="Camada_1" data-name="Camada 1" xmlns="http://www.w3.org/2000/svg" viewBox="0 0 291.94 132.58">
  <defs>
    <style>
      .cls-1 {
        fill: #fff;
      }
    </style>
  </defs>
  <path class="cls-1" d="M80.99,70.75c0,2.81-.1,5.83-.2,7.47h6.6l.31-3.48h.1c1.74,2.97,4.61,4.05,7.53,4.05,5.73,0,11.41-4.51,11.41-13.52.05-7.68-4.3-12.64-10.29-12.64-3.48,0-6.09,1.38-7.58,3.53h-.1v-14.33h-7.78v28.92h0ZM88.77,63.89c0-.48.05-.96.15-1.44.51-2.25,2.46-3.84,4.56-3.84,3.63,0,5.37,3.07,5.37,6.96,0,4.51-2.05,7.07-5.37,7.07-2.25,0-4.05-1.64-4.56-3.69-.11-.45-.16-.92-.15-1.38,0,0,0-3.68,0-3.68ZM107.88,78.22h7.78v-36.4h-7.78v36.4ZM126.02,78.22v-25.03h-7.78v25.03h7.78ZM122.18,42.34c-2.51,0-4.15,1.69-4.15,3.89s1.59,3.89,4.04,3.89c2.61,0,4.2-1.74,4.2-3.89-.05-2.2-1.59-3.89-4.1-3.89h0ZM128.54,78.22h7.78v-14.44c-.03-.66.06-1.32.25-1.94.56-1.43,1.84-2.92,3.99-2.92,2.81,0,3.94,2.2,3.94,5.42v13.87h7.78v-14.8c0-7.37-3.84-10.8-8.96-10.8-4.2,0-6.7,2.41-7.73,4.04h-.15l-.36-3.48h-6.76c.1,2.25.2,4.86.2,7.98v17.05h0ZM178.52,60.66c0-3.74.1-5.84.21-7.47h-6.76l-.26,3.02h-.1c-1.28-2.1-3.43-3.59-6.86-3.59-6.19,0-11.36,5.12-11.36,13.2,0,7.17,4.4,12.18,10.59,12.18,2.86,0,5.27-1.17,6.76-3.22h.1v1.59c0,4.67-2.81,6.61-6.5,6.61-2.54-.01-5.04-.67-7.27-1.9l-1.53,5.94c2.25,1.23,5.68,1.89,9.01,1.89,3.68,0,7.42-.72,10.14-3.07,2.86-2.51,3.84-6.45,3.84-11.27v-13.92ZM170.74,67.06c.02.71-.07,1.42-.26,2.1-.51,1.86-2.22,3.14-4.15,3.12-3.22,0-5.07-2.92-5.07-6.66,0-4.55,2.25-7.11,5.12-7.11,2.15,0,3.64,1.38,4.2,3.43.1.47.15.95.15,1.43v3.69h0Z"/>
  <path class="cls-1" d="M211.15,45.15c-2.61,2.57-5.34,6.2-8.2,10.91-2.84,4.66-5.3,9.55-7.34,14.62-1.06,2.61-1.96,5.29-2.67,8.02-1.15-.13-2.6-.26-4.34-.37-1.57-.11-3.14-.11-4.71-.02-.41-5.1.04-11.04,1.35-17.82.76-3.91,1.62-7.06,2.6-9.47.62-1.53,1.24-2.65,1.87-3.36-2.79-.66-4.8-1.1-6.04-1.3,0-.68.34-1.84,1.02-3.5.2-.51.44-.99.72-1.46.05-.12.17-.13.37-.06.03,0,.18.09.44.21.27.13.46.22.6.27,2.47,1,6.44,1.84,11.9,2.5,5.28.63,9.37.82,12.28.56.1.05.17.15.16.26h0ZM192.2,89.32c-.45,1.11-2.09,1.74-4.9,1.93-2.41.14-4.83-.05-7.19-.55-.85-.17-1.68-.41-2.48-.73-1.85-.75-3.17-1.82-3.96-3.23-.79-1.4-.93-2.73-.42-3.98.58-1.44,2.41-2.12,5.46-2,2.46.1,4.88.61,7.17,1.52,2.39.97,4.17,2.17,5.33,3.58,1.07,1.28,1.4,2.45.99,3.46h0Z"/>

</svg>
