<?xml version="1.0" encoding="UTF-8"?>
<svg id="Camada_1" data-name="Camada 1" xmlns="http://www.w3.org/2000/svg" viewBox="0 0 291.94 132.58">
  <defs>
    <style>
      .cls-1 {
        fill: #fff;
      }
    </style>
  </defs>
  <path class="cls-1" d="M72.21,58.45c-6.91,0-11.4,5.16-11.4,11.13s4.31,11.18,11.4,11.18,11.31-5.25,11.31-11.18-4.31-11.13-11.31-11.13ZM72.16,75.52c-3.55,0-5.21-2.87-5.21-5.93s1.66-5.88,5.25-5.88,5.16,2.83,5.16,5.88-1.61,5.93-5.2,5.93ZM58.01,73.67l-3.04-2.33c-1.44,2.2-3.73,3.68-6.87,3.68-4.85,0-7.63-3.82-7.63-8.76s2.51-8.71,7.76-8.71c3.05,0,5.12,1.35,6.51,3.55l3.07-2.36c.71-.55.87-1.56.34-2.28-2.35-3.25-6-4.65-9.97-4.65-9.6,0-14.05,7.18-14.05,14.46,0,8.62,5.12,14.5,13.96,14.5,4.22,0,7.94-1.52,10.26-4.83.51-.73.35-1.73-.35-2.27ZM99.57,58.45c-3.05,0-5.47,1.3-7.09,3.41-.05-.58-.14-1.17-.27-1.8-.27-.76-.85-1.12-1.79-1.12h-3.59v21.33h6.15v-10.15c0-4.31,2.06-6.42,5.12-6.42,2.42,0,3.77,1.44,3.77,4.4v12.17h6.15v-11.94c0-6.56-3.05-9.88-8.44-9.88ZM123.51,75.35c-.35.1-.72.17-1.1.17-2.47,0-3.86-1.44-3.86-4.49v-6.96h5.5c.92,0,1.66-.75,1.66-1.66v-3.45h-7.16v-3.06c0-.92-.75-1.66-1.66-1.66h-4.48v16.57c0,6.17,2.71,9.96,8.14,9.96,3.17,0,5.4-1.37,6.42-2.17l-1.6-2.54c-.39-.62-1.15-.91-1.86-.71ZM139.17,58.45c-3.39,0-5.95.63-8.49,2.37-.83.57-.99,1.73-.35,2.51l1.71,2.12c2.24-1.75,4.13-2.11,6.33-2.11,2.87,0,4.76,1.53,4.76,4.85v.27c-1.7-.63-3.64-.94-5.79-.94-6.19,0-8.75,3.32-8.75,6.73s2.2,6.51,7.76,6.51c3.55,0,5.93-1.53,7.36-3.51.05.58.09,1.17.23,1.8.18.85.85,1.21,1.79,1.21h3.19v-11.76c0-7-4.31-10.06-9.74-10.06ZM142.9,72.24c-.36,2.29-2.2,4.04-5.52,4.04-1.84,0-3.1-.72-3.1-2.33,0-1.71,1.21-2.56,4.08-2.56,1.7,0,3.1.22,4.58.58l-.05.27ZM203.51,75.16h-9.69l10.05-11.04c.58-.63.81-1.21.81-2.06v-3.1s-16.56,0-16.56,0c-1.03,0-1.66.58-1.66,1.66v3.46h10.59l-10,11.04c-.58.58-.85,1.17-.85,2.02v3.15h18.98v-3.46c0-1.08-.63-1.66-1.66-1.66ZM227.43,58.95h-4.7v10.19c0,4.31-1.93,6.37-4.98,6.37-2.33,0-3.63-1.44-3.63-4.36v-10.77c0-.8-.65-1.45-1.45-1.45h-4.7v11.99c0,6.46,3.01,9.83,8.3,9.83,2.96,0,5.29-1.3,6.95-3.37.05.54.13,1.17.27,1.71.22.81.85,1.17,1.79,1.17h3.59v-19.88c0-.8-.65-1.44-1.45-1.44ZM237.7,52.27h-4.48v26.35c0,.92.75,1.66,1.66,1.66h4.48v-26.35c0-.92-.75-1.66-1.66-1.66ZM172.65,52.26h-5.76l-10.91,28.02h6.28l2.38-6.69h11.4l2.42,6.69h6.46l-10.36-26.72c-.31-.9-.98-1.3-1.92-1.3ZM166.35,68.33l3.99-10.78,3.99,10.78h-7.99Z"/>
  <path class="cls-1" d="M250.57,60.76c-.73-.41-1.3-.99-1.7-1.71-.41-.73-.61-1.55-.61-2.46s.21-1.71.63-2.43c.42-.72.99-1.29,1.71-1.71.72-.42,1.53-.63,2.43-.63s1.73.2,2.46.61c.73.41,1.3.97,1.7,1.7.41.73.61,1.55.61,2.46s-.21,1.71-.63,2.44c-.42.73-.99,1.3-1.71,1.73-.72.42-1.53.63-2.43.63-.91,0-1.73-.2-2.46-.62ZM254.89,59.78c.55-.32.99-.76,1.3-1.33.32-.56.47-1.18.47-1.87s-.15-1.33-.46-1.88c-.31-.55-.74-.99-1.29-1.3-.55-.32-1.18-.47-1.88-.47s-1.29.16-1.84.48c-.55.32-.99.77-1.31,1.33s-.48,1.18-.48,1.85.16,1.33.47,1.89c.32.56.75,1,1.3,1.31.55.32,1.17.47,1.86.47.68,0,1.3-.16,1.86-.48ZM253.09,54.21c.62,0,1.1.14,1.44.41.34.27.52.67.52,1.19,0,.59-.27,1.02-.82,1.3l1.24,1.72h-1.35l-1.03-1.47c-.07.01-.18.02-.32.02h-.38v1.45h-1.11v-4.63h1.81ZM253.91,55.81c0-.2-.07-.34-.2-.42-.13-.08-.36-.12-.68-.12h-.63v1.07h.63c.59,0,.88-.18.88-.53Z"/>

</svg>
