<?xml version="1.0" encoding="UTF-8"?>
<svg id="Camada_1" data-name="Camada 1" xmlns="http://www.w3.org/2000/svg" viewBox="0 0 291.94 132.58">
  <defs>
    <style>
      .cls-1 {
        fill: #fff;
      }
    </style>
  </defs>
  <path class="cls-1" d="M198.18,68.75h-6.73l-.03,9.41c0,4.53,3.86,5.45,6.79,5.57.38.02.69.34.69.72v6.1c0,.41-.34.73-.75.72-5.07-.12-9.3-1.49-11.82-4.08-3.53-3.62-3.44-7.76-3.42-8.13l.07-26.03c0-.4.33-.72.72-.72h7.07c.4,0,.72.33.72.73l-.06,8.56h6.73c.4,0,.72.32.72.72v5.69c0,.4-.32.72-.72.72Z"/>
  <path class="cls-1" d="M136.3,89.43l.02-40.94c0-.4-.32-.72-.72-.72h-7.08c-.4,0-.72.32-.72.72v40.94c0,.4.32.72.72.72h7.06c.4,0,.72-.32.72-.72Z"/>
  <path class="cls-1" d="M174.09,73.43c-2.17-.82-5.04-1.43-7.58-1.85-1.26-.22-2.26-.54-2.99-.96-1.24-.63-1.26-2.59-.04-3.3,1.39-.94,4.78-.85,6.21.2.55.33.99.92,1.3,1.63.11.24.37.36.62.29l6.38-1.94c.43-.13.63-.61.44-1.01-.8-1.7-2.05-3.14-3.76-4.29-4.16-3.01-12.75-2.96-16.74.15-3.57,2.3-4.46,8.61-1.7,11.86,2.33,2.79,6.1,3.78,9.75,4.55h.04c1.59.26,4.3.79,5.16,1.42,1.36.81,1.21,2.69-.09,3.56-.73.54-1.91.81-3.51.81-3.08,0-5.15-1.13-6.08-3.72-.09-.24-.36-.39-.61-.33l-6.43,1.66c-.4.1-.63.52-.51.91.72,2.34,2.12,4.28,4.16,5.65,6.87,4.61,22.19,3.43,21.97-7.38,0-2.11-.55-3.81-1.65-5.07-1.07-1.23-2.54-2.19-4.36-2.85h0Z"/>
  <path class="cls-1" d="M149.3,60.46h-7.18c-.4,0-.72.32-.72.72v28.24c0,.4.32.72.72.72h7.18c.4,0,.72-.32.72-.72v-28.24c0-.4-.32-.72-.72-.72Z"/>
  <path class="cls-1" d="M145.71,50.69c-2.59,0-4.7-2.1-4.7-4.7v4.96c0,2.59,2.1,4.7,4.7,4.7s4.7-2.1,4.7-4.7v-4.96c0,2.59-2.1,4.7-4.7,4.7Z"/>
  <path class="cls-1" d="M150.39,46.43c.24-2.58-1.66-4.88-4.24-5.12-2.58-.24-4.88,1.66-5.12,4.24-.24,2.58,1.66,4.88,4.24,5.12,2.58.24,4.88-1.66,5.12-4.24Z"/>
  <path class="cls-1" d="M108.68,59.99c-8.64,0-15.65,7.01-15.65,15.65s7.01,15.65,15.65,15.65,15.65-7.01,15.65-15.65-7.01-15.65-15.65-15.65ZM108.68,83.32c-4.24,0-7.68-3.44-7.68-7.68s3.44-7.68,7.68-7.68,7.68,3.44,7.68,7.68-3.44,7.68-7.68,7.68Z"/>

</svg>
