<?xml version="1.0" encoding="UTF-8"?>
<svg id="Camada_1" data-name="Camada 1" xmlns="http://www.w3.org/2000/svg" viewBox="0 0 291.94 132.58">
  <defs>
    <style>
      .cls-1 {
        fill: #fff;
      }
    </style>
  </defs>
  <path class="cls-1" d="M211.57,69.36v.31s0,.09.04.08v2.94c-.15.31-.41.59-.81.59h-21.73c-.05,0-.09.02-.08.06.51,4.31,3.8,7.04,8.12,6.99,2.61-.03,4.78-.92,6.65-2.72.27-.26.66-.38,1.02-.19l4.48,2.37c.28.15.45.38.5.66.05.31-.06.57-.28.8-2.74,2.94-6.13,4.61-10.15,4.95-.11,0-.19.03-.28.02-.11,0-.23,0-.35,0h-.57s-.09.01-.08.04h-.69s-.02-.04-.05-.04h-.6s-.35,0-.35,0c-2.72,0-6.46-1.43-8.77-3.13-2.76-2.03-4.71-4.94-5.56-8.27-.69-2.74-.69-5.66.02-8.4.91-3.52,3.05-6.55,6.07-8.58,3.27-2.2,7.29-3.09,11.21-2.73s7.06,2.07,9.27,5.14c1.81,2.52,2.65,5.52,2.94,8.57.02.18.02.34.02.51ZM204.21,67.7c-.02-1.01-.17-1.91-.49-2.77-1.07-2.83-3.6-4.13-6.52-4.27-4.62-.22-7.62,2.48-8.21,7.04h15.22Z"/>
  <path class="cls-1" d="M211.61,69.75s-.04-.04-.04-.08v-.31h.04v.39Z"/>
  <path class="cls-1" d="M81.61,64.77c1.55-3.42,4.37-6.41,7.46-8.46.38-.25.99-.65,1.35-.42.26.17.21.61.11.88-.37,1.03-.62,2.07-.76,3.17-.17,1.35-.27,2.68-.27,4.06v14.62c-.01.29.15.53.33.65.23.16.53.22.79.09l15.9-7.8c.29-.14.44-.42.45-.71.01-.33-.16-.58-.44-.76l-13.03-8.16c-.25-.16-.46-.26-.65-.48-.32-.35-.41-.82-.23-1.28.35-.91.91-1.71,1.6-2.42,1.2-1.22,2.72-2.05,4.42-2.33,2.51-.42,4.95.43,7,1.85,1.19.82,2.26,1.76,3.21,2.85s1.66,2.34,2.22,3.67c1.43,3.42,1.71,7.5.75,11.08-1.43,5.35-5.62,9.22-10.94,10.58-2.97.76-6.08.76-9.05,0-4.97-1.27-9-4.75-10.66-9.65-.5-1.49-.77-3.02-.83-4.59-.09-2.24.34-4.41,1.27-6.46Z"/>
  <path class="cls-1" d="M143.93,84.7c0,.51-.43.85-.89.85h-5.67c-.41,0-.86-.33-.86-.78v-17.08c-.01-.85-.11-1.65-.33-2.45-.48-1.74-1.6-2.99-3.42-3.34-1.24-.24-2.52-.16-3.72.21-2.02.61-3.41,2.2-3.99,4.19-.24.84-.42,1.68-.42,2.57v15.77c-.01.51-.38.91-.89.91h-5.67c-.46,0-.89-.35-.89-.83v-27.98c0-.53.37-.92.89-.93.19,0,.39,0,.57.09l5.54,2.94c.13.07.21,0,.29-.09,2.68-3.1,6.71-3.98,10.66-3.6,2.74.3,5.11,1.37,6.71,3.71,3.4-2.81,7.81-4.12,12.19-3.73.98.1,1.88.29,2.8.62,3.26,1.17,5.14,3.92,5.91,7.21.32,1.38.52,2.77.52,4.2v17.56c0,.47-.42.82-.86.82h-5.63c-.53,0-.95-.36-.95-.91v-16.43c0-.75-.1-1.44-.24-2.16-.38-1.92-1.43-3.52-3.4-4.05-1.15-.31-2.35-.32-3.52-.05-1.37.31-2.52,1.12-3.31,2.27-1,1.47-1.4,3.37-1.41,5.15v15.33Z"/>
  <path class="cls-1" d="M175.85,85.55h-5.67c-.51,0-.88-.41-.88-.91v-25.05c0-.35.2-.62.48-.77l5.47-2.91c.18-.09.31-.09.52-.11.47-.03.97.32.97.85v28.05c0,.48-.44.85-.89.85Z"/>
  <path class="cls-1" d="M170.01,46.29h6.02c.41,0,.72.48.71.82v1.72c0,.31-.2.59-.48.73l-5.63,2.92c-.3.16-.61.17-.9,0-.24-.14-.44-.41-.44-.74v-4.58c0-.44.31-.8.71-.87Z"/>

</svg>
