<?xml version="1.0" encoding="UTF-8"?>
<svg id="Camada_1" data-name="Camada 1" xmlns="http://www.w3.org/2000/svg" viewBox="0 0 291.94 132.58">
  <defs>
    <style>
      .cls-1 {
        fill: #fff;
      }
    </style>
  </defs>
  <path class="cls-1" d="M53.83,78.43l7.91-8.33c.74-.78,1.16-1.84,1.16-2.96v-6.55c0-3.05,1.15-5.97,3.2-8.13l3.16-3.33c.28-.29.03-.78-.35-.71-.96.18-1.92.41-2.89.68-13.08,3.7-21.73,14.38-19.3,23.87.52,2.04,1.51,3.87,2.88,5.43,1.12,1.29,3.07,1.28,4.25.04"/>
  <path class="cls-1" d="M86.93,54.15l-6.23,6.56c-.74.78-1.16,1.84-1.16,2.95v6.55c0,3.05-1.15,5.97-3.19,8.13l-4.84,5.09c-.27.3-.03.78.35.71.96-.18,1.92-.41,2.89-.68,13.08-3.69,21.73-14.38,19.3-23.86-.52-2.04-1.52-3.87-2.88-5.43-1.12-1.29-3.07-1.28-4.25-.04"/>
  <path class="cls-1" d="M80.21,45l-10.6,11.16c-1.12,1.17-1.74,2.77-1.74,4.43v9.15c0,.83-.32,1.63-.87,2.22l-13.93,14.67c-.2.21-.14.56.12.68,1.08.51,2.22.94,3.42,1.31,1.41.43,2.93.05,3.96-1.05l12.27-12.92c1.12-1.17,1.74-2.77,1.74-4.43v-9.15c0-.83.32-1.63.87-2.22l12.26-12.9c.2-.21.14-.56-.12-.68-1.08-.51-2.22-.94-3.42-1.3-1.41-.43-2.93-.05-3.96,1.04Z"/>
  <path class="cls-1" d="M122.65,69.71c0,3.89-3.5,5.35-9.32,5.35-2.27,0-5.13-.12-7.77-.49-.19-.03-.34-.2-.34-.41v-1.39c0-1.2.98-2.15,2.11-2.04,2.2.21,4.13.31,5.94.31,2.65,0,4.84-.27,4.84-2.06v-1.17c0-1.23-.51-1.33-3.07-2l-5.5-1.39c-2.62-.67-4.39-1.86-4.39-5.19v-2.16c0-3.93,3.86-5.36,9.44-5.36,2.49,0,4.66.12,7.5.64.19.04.33.21.33.41v1.24c0,1.21-1.01,2.16-2.16,2.03-2.01-.22-3.66-.3-5.55-.3-2.9,0-5.02.23-5.02,2.02v.9c0,1.3.76,1.6,3.79,2.4l4.8,1.23c2.75.74,4.35,1.63,4.35,4.99v2.43h0Z"/>
  <path class="cls-1" d="M159.89,64.15c0-2.69-1.8-3.06-4.33-3.06-2.9,0-3.92.5-4.77,2.36v9.32c0,1.14-.87,2.05-1.94,2.05h-2.18c-.22,0-.39-.18-.39-.41v-15c0-1.13.87-2.05,1.95-2.05h1.71c.2,0,.36.15.39.36l.24,2.13h.19c.76-2.09,3.26-2.83,6.69-2.83,3.98,0,6.95,1.26,6.95,4.92v10.82c0,1.14-.87,2.05-1.95,2.05h-2.18c-.22,0-.39-.18-.39-.41v-10.26h0Z"/>
  <path class="cls-1" d="M175.36,67.06l-.98.09c-1.01.1-1.78.97-1.78,2.04v3.58c0,1.13-.87,2.05-1.95,2.05h-2.18c-.22,0-.39-.18-.39-.41v-21.55c0-1.13.87-2.04,1.95-2.04h2.18c.22,0,.39.18.39.41v11.58c0,.24.2.43.43.41l2.9-.29c.24-.02.45-.13.62-.32l4.16-4.6c.37-.41.88-.64,1.41-.64h3.28c.34,0,.52.43.28.69l-6.11,6.86,6.66,9.25c.19.27,0,.66-.31.66h-3.28c-.6,0-1.16-.29-1.53-.78l-4.9-6.59c-.2-.27-.53-.42-.85-.39"/>
  <path class="cls-1" d="M202.22,64.15c0-2.69-1.73-3.06-4.33-3.06-2.9,0-3.92.5-4.77,2.36v9.32c0,1.14-.87,2.05-1.94,2.05h-2.18c-.22,0-.39-.18-.39-.41v-21.55c0-1.14.87-2.05,1.94-2.05h2.18c.22,0,.39.18.39.41v5.81l-.22,2.83h.19c.76-2.09,3.26-2.83,6.69-2.83,3.98,0,6.95,1.26,6.95,4.92v10.82c0,1.14-.87,2.05-1.94,2.05h-2.18c-.22,0-.39-.18-.39-.41v-10.26h0Z"/>
  <path class="cls-1" d="M215.17,75.76l-6.94-17.81c-.11-.27.08-.56.36-.56h2.8c.8,0,1.51.52,1.81,1.3l4.43,11.83,4.27-11.82c.29-.79,1.01-1.32,1.82-1.32h2.74c.27,0,.46.29.36.55l-8.18,22.5c-.29.79-1.01,1.32-1.81,1.32h-2.7c-.27,0-.46-.29-.36-.55l1.42-3.93c.18-.49.17-1.03-.02-1.51"/>
  <path class="cls-1" d="M241.3,72.27h-.19c-.7,2-3.19,2.79-6.57,2.79-3.88,0-6.85-1.33-6.85-4.96,0-4.51,2.3-5.48,6.88-5.62,2.56-.08,3.8.07,6.55.32v-1.26c0-1.66-1.36-2.63-5.81-2.63-1.61,0-3.52.11-5.81.41-.24.03-.45-.16-.45-.4v-1.51c0-1.03.73-1.91,1.72-2.03,2.1-.27,4.01-.34,5.93-.34,5.87,0,8.94,1.43,8.94,5.48v10.25c0,1.14-.87,2.05-1.94,2.05h-1.75c-.2,0-.36-.15-.39-.36l-.24-2.2h0ZM241.11,67.85c-1.49-.2-3.19-.36-4.42-.36-2.84,0-4.45.27-4.45,2.06,0,1.66,1.83,1.89,4.05,1.89,2.52,0,3.88-.53,4.84-1.86v-1.73h0Z"/>
  <path class="cls-1" d="M138.39,72.27h-.19c-.7,2-3.19,2.79-6.57,2.79-3.88,0-6.85-1.33-6.85-4.96,0-4.51,2.3-5.48,6.88-5.62,2.56-.08,3.8.07,6.55.32v-1.26c0-1.66-1.36-2.63-5.81-2.63-1.61,0-3.52.11-5.81.41-.24.03-.44-.16-.44-.4v-1.51c0-1.03.73-1.91,1.71-2.03,2.1-.27,4.01-.34,5.93-.34,5.87,0,8.94,1.43,8.94,5.48v10.25c0,1.14-.87,2.05-1.94,2.05h-1.75c-.2,0-.36-.15-.39-.36l-.24-2.2h0ZM138.2,67.85c-1.49-.2-3.19-.36-4.42-.36-2.84,0-4.45.27-4.45,2.06,0,1.66,1.83,1.89,4.05,1.89,2.53,0,3.88-.53,4.84-1.86v-1.73h0Z"/>

</svg>
