<?xml version="1.0" encoding="UTF-8"?>
<svg id="Camada_1" data-name="Camada 1" xmlns="http://www.w3.org/2000/svg" viewBox="0 0 291.94 132.58">
  <defs>
    <style>
      .cls-1 {
        fill: #fff;
      }
    </style>
  </defs>
  <path id="Caminho_68" data-name="Caminho 68" class="cls-1" d="M81.01,48.74l-6.69,6.53c-2.09,2.02-2.15,5.36-.13,7.46.04.04.08.08.13.13l6.69,6.53c2.06,1.99,2.11,5.27.12,7.33-.04.04-.08.08-.12.12l-10.37-10.12c-4.23-4.08-4.34-10.82-.25-15.05.08-.09.17-.17.25-.25l10.37-10.12c2.06,1.99,2.11,5.27.12,7.33-.04.04-.08.08-.12.12h0Z"/>
  <path id="Caminho_69" data-name="Caminho 69" class="cls-1" d="M81.09,83.84l6.69-6.53c2.09-2.02,2.15-5.36.13-7.45-.04-.04-.08-.09-.13-.13l-6.69-6.53c-2.06-1.99-2.11-5.27-.13-7.32.04-.04.08-.09.13-.13l10.37,10.12c4.23,4.08,4.34,10.82.25,15.05-.08.09-.17.17-.25.25l-10.37,10.12c-2.06-1.99-2.11-5.27-.13-7.32.04-.04.08-.08.13-.13Z"/>
  <path id="Caminho_70" data-name="Caminho 70" class="cls-1" d="M163.61,60.04c-6.29.01-10.38,4.21-10.42,10.69v8.67c0,.86.41,1.89,2.38,1.89s2.28-1.03,2.28-1.89v-8.67c0-4.32,2.2-7,5.73-7h.05c3.54,0,5.73,2.68,5.73,7v8.67c0,.86.4,1.89,2.28,1.89s2.38-1.03,2.38-1.89v-8.67c-.04-6.48-4.13-10.68-10.42-10.69h0Z"/>
  <path id="Caminho_71" data-name="Caminho 71" class="cls-1" d="M222.69,60.04h-.11c-6.29.01-10.38,4.21-10.42,10.69v8.67c0,.86.41,1.89,2.38,1.89s2.28-1.03,2.28-1.89v-8.67c0-4.32,2.2-7,5.73-7h.07c.51,0,1-.2,1.37-.55.35-.34.55-.81.55-1.3,0-1.02-.83-1.84-1.85-1.85h0Z"/>
  <path id="Caminho_72" data-name="Caminho 72" class="cls-1" d="M118.12,63.57c-3.28-1.37-6.11-2.54-6.11-5.11,0-2.36,2.13-3.89,5.42-3.89,1.82.01,3.61.53,5.16,1.49.2.11.37.21.53.3.39.3.86.49,1.35.55,1.14-.14,2.01-1.1,2.03-2.25,0-.89-.83-1.54-1.72-2.11-2.22-1.33-4.76-2.02-7.34-2-5.97,0-9.98,3.26-9.98,8.12,0,5.12,4.54,7.02,8.55,8.69,3.5,1.47,6.53,2.73,6.53,5.71,0,2.7-2.42,4.52-6.02,4.52-2-.01-3.95-.66-5.56-1.85l-.42-.28c-.46-.41-1.04-.66-1.65-.72-1.13.14-1.99,1.07-2.03,2.21,0,.75.51,1.44,1.66,2.24,2.34,1.61,5.12,2.45,7.96,2.41,6.36,0,10.63-3.52,10.63-8.75,0-5.56-4.77-7.54-8.97-9.28h0Z"/>
  <path id="Caminho_73" data-name="Caminho 73" class="cls-1" d="M135.71,72.17h10.34c1.67,0,3.37-.35,3.37-2.97.25-4.81-3.45-8.91-8.26-9.16-.27-.01-.53-.02-.8,0-5.84,0-9.61,4.23-9.61,10.79s3.91,10.61,10.21,10.61c2.31.07,4.59-.54,6.55-1.77,1.03-.65,1.49-1.28,1.49-2.02,0-1.09-.89-1.98-1.98-1.98-.63.09-1.21.35-1.7.76l-.1.06c-1.23.75-2.64,1.12-4.08,1.08-3.29,0-5.24-1.66-5.82-4.95-.02-.11.01-.22.09-.3.07-.09.18-.14.3-.14h0ZM135.38,68.29c.54-2.96,2.28-4.6,4.89-4.6s4.45,1.73,4.69,4.62c0,.1-.03.21-.11.28-.07.08-.17.12-.28.12h-8.84c-.11,0-.21-.05-.28-.13-.07-.08-.09-.19-.07-.3h0Z"/>
  <path id="Caminho_74" data-name="Caminho 74" class="cls-1" d="M180.93,51.19c-1.53.05-2.73,1.33-2.68,2.86.05,1.53,1.33,2.73,2.86,2.68,1.51-.05,2.7-1.29,2.68-2.8.02-1.5-1.18-2.73-2.68-2.75-.06,0-.12,0-.18,0Z"/>
  <path id="Caminho_75" data-name="Caminho 75" class="cls-1" d="M180.88,60.27c-1.83,0-2.21,1.03-2.21,1.89v17.25c0,.86.4,1.89,2.31,1.89s2.21-1.03,2.21-1.89v-17.25c0-.87-.4-1.89-2.31-1.89h0Z"/>
  <path id="Caminho_76" data-name="Caminho 76" class="cls-1" d="M197.72,60.04c-6.34,0-10.44,4.23-10.44,10.79s4.06,10.69,10.35,10.69,10.49-4.23,10.49-10.78-4.08-10.7-10.4-10.7ZM197.72,77.78c-3.51,0-5.78-2.77-5.78-7.05s2.2-7,5.74-7,5.74,2.72,5.74,7.09-2.18,6.96-5.69,6.96Z"/>

</svg>
