<?xml version="1.0" encoding="UTF-8"?>
<svg id="Camada_1" data-name="Camada 1" xmlns="http://www.w3.org/2000/svg" viewBox="0 0 291.94 132.58">
  <defs>
    <style>
      .cls-1 {
        fill: #fff;
      }
    </style>
  </defs>
  <path class="cls-1" d="M103.85,53.21c-.24-.87-.8-1.66-1.6-2.27-4.2-3.17-9.19-5.54-14.62-6.95-.53-.14-1.07-.2-1.62-.2s-1.09.07-1.62.2c-5.43,1.41-10.42,3.78-14.62,6.95-.8.6-1.37,1.39-1.6,2.27-.62,2.3-.94,4.65-.94,6.99v12.19c0,2.34.31,4.69.94,6.99.24.87.8,1.66,1.6,2.27,4.2,3.17,9.19,5.54,14.62,6.95.53.14,1.07.2,1.62.2s1.09-.07,1.62-.2c5.43-1.41,10.42-3.78,14.62-6.95.8-.6,1.37-1.39,1.6-2.27.62-2.3.94-4.65.94-6.99v-12.19c0-2.34-.31-4.69-.94-6.99h0ZM103.33,67.08c-.21.78-.71,1.48-1.45,2.04-2.06,1.55-4.33,2.92-6.75,4.07-2.42,1.15-5,2.08-7.66,2.78-.47.12-.96.19-1.46.19s-.98-.06-1.46-.19c-2.66-.69-5.24-1.63-7.66-2.78s-4.69-2.52-6.75-4.07c-.73-.56-1.23-1.26-1.45-2.04-.14-.52-.14-1.07,0-1.6.21-.78.71-1.48,1.45-2.04,2.06-1.55,4.33-2.92,6.75-4.07,2.42-1.15,5-2.08,7.66-2.78.47-.12.96-.19,1.46-.19s.98.06,1.46.19c2.66.69,5.24,1.63,7.66,2.78,2.42,1.15,4.69,2.52,6.75,4.07.73.56,1.23,1.26,1.45,2.04.14.52.14,1.07,0,1.6M115.6,59.76c-.92,0-1.42-.5-1.42-1.39v-3.37h19.21v3.37c0,.88-.51,1.39-1.42,1.39h-5.46v17.81h-5.43v-17.81h-5.47ZM147.41,72.68c1.33-.59,2.28-1.26,3.41-2.13.84-.65,1.26-1.53,1.36-2.54.15-1.43.15-2,0-3.43-.1-.96-.55-1.87-1.36-2.51-1.12-.93-2.06-1.58-3.41-2.17-.42-.19-.91-.29-1.45-.29s-1.03.1-1.45.29c-1.35.59-2.29,1.25-3.41,2.17-.81.64-1.26,1.55-1.36,2.51-.15,1.43-.15,2,0,3.43.1,1.01.52,1.88,1.36,2.54,1.12.88,2.08,1.55,3.41,2.13.43.19.91.25,1.45.25s1.01-.07,1.45-.25M142.42,77.52c-1.58-.62-3.44-1.56-4.79-2.57-1.96-1.46-3.18-3.72-3.46-6.16-.19-1.74-.19-3.28,0-5.02.27-2.44,1.5-4.69,3.46-6.12,1.35-1.04,3.2-2,4.79-2.62,1.09-.43,2.28-.76,3.54-.76s2.45.33,3.54.76c1.6.63,3.44,1.58,4.79,2.62,1.96,1.43,3.18,3.68,3.46,6.12.19,1.74.19,3.28,0,5.02-.27,2.44-1.5,4.69-3.46,6.16-1.35,1.01-3.19,1.95-4.79,2.57-1.13.44-2.28.78-3.54.78s-2.41-.33-3.54-.78M159.96,59.76c-.92,0-1.42-.5-1.42-1.39v-3.37h19.21v3.37c0,.88-.51,1.39-1.42,1.39h-5.46v17.81h-5.43v-17.81h-5.47ZM188.25,76.74l-5.97-7.74c-.43-.55-.58-1.03-.58-1.71v-12.29h3.95c.88,0,1.38.48,1.38,1.39v9.81c0,.68.14,1.19.58,1.73l3.98,4.96,3.8-4.96c.4-.55.58-1.05.58-1.73v-9.81c0-.88.48-1.39,1.38-1.39h3.95v12.29c0,.68-.18,1.17-.58,1.73l-5.9,7.72c-.43.58-.96.82-1.68.82h-3.19c-.74,0-1.25-.24-1.68-.82M204.79,70.3h4.18c.97,0,1.14.33,1.41,1.26.39,1.33,1.53,2.03,3.86,2.03h1.24c2.4,0,3.64-.74,3.64-2.22v-.49c0-.91-.79-1.5-2.35-1.79l-5.28-.96c-3.78-.68-6.31-2.48-6.31-5.8v-1.3c0-4.16,3.71-6.54,8.14-6.54h2.54c5.3,0,8.29,2.83,8.29,7.28h-4.23c-.84,0-1.08-.2-1.26-.89-.32-1.25-1.21-1.87-3.1-1.87h-1.44c-1.69,0-3.36.47-3.36,2.01v.52c0,.81.72,1.38,2.2,1.64l5.52.99c3.68.66,6.23,2.36,6.23,5.85v1.35c0,4.52-3.98,6.76-8.74,6.76h-2.28c-5.18,0-8.88-2.36-8.88-7.83"/>

</svg>
