<svg width="1440" height="900" viewBox="0 0 1440 900" fill="none" xmlns="http://www.w3.org/2000/svg">
  <defs>
    <linearGradient id="accent" x1="0" y1="0" x2="1" y2="1">
      <stop offset="0" stop-color="#4D82FF" stop-opacity="0.92"/>
      <stop offset="0.55" stop-color="#2A3DD6" stop-opacity="0.88"/>
      <stop offset="1" stop-color="#161BA9" stop-opacity="0.84"/>
    </linearGradient>
    <filter id="soft" x="-140" y="-140" width="1720" height="1180" filterUnits="userSpaceOnUse">
      <feGaussianBlur stdDeviation="34" result="b"/>
      <feColorMatrix in="b" type="matrix"
        values="1 0 0 0 0
                0 1 0 0 0
                0 0 1 0 0
                0 0 0 0.42 0" />
    </filter>
  </defs>
  <rect width="1440" height="900" fill="#000"/>
  <g filter="url(#soft)">
    <circle cx="420" cy="260" r="210" fill="#161BA9" fill-opacity="0.20"/>
    <circle cx="1100" cy="300" r="260" fill="#2A3DD6" fill-opacity="0.12"/>
  </g>

  <rect x="170" y="150" width="1100" height="600" rx="22" fill="rgba(255,255,255,0.03)" stroke="rgba(255,255,255,0.10)"/>
  <rect x="210" y="200" width="420" height="18" rx="9" fill="rgba(255,255,255,0.12)"/>
  <rect x="210" y="232" width="560" height="12" rx="6" fill="rgba(255,255,255,0.07)"/>

  <g transform="translate(210 300)">
    <rect x="0" y="0" width="1000" height="380" rx="18" fill="rgba(0,0,0,0.35)" stroke="rgba(255,255,255,0.08)"/>

    <g transform="translate(40 50)">
      <rect x="0" y="0" width="220" height="74" rx="16" fill="rgba(255,255,255,0.03)" stroke="rgba(255,255,255,0.08)"/>
      <rect x="22" y="18" width="56" height="22" rx="11" fill="url(#accent)"/>
      <rect x="22" y="48" width="160" height="10" rx="5" fill="rgba(255,255,255,0.08)"/>
    </g>

    <g transform="translate(40 150)">
      <rect x="0" y="0" width="220" height="74" rx="16" fill="rgba(255,255,255,0.03)" stroke="rgba(255,255,255,0.08)"/>
      <rect x="22" y="18" width="56" height="22" rx="11" fill="url(#accent)" fill-opacity="0.85"/>
      <rect x="22" y="48" width="180" height="10" rx="5" fill="rgba(255,255,255,0.08)"/>
    </g>

    <g transform="translate(40 250)">
      <rect x="0" y="0" width="220" height="74" rx="16" fill="rgba(255,255,255,0.03)" stroke="rgba(255,255,255,0.08)"/>
      <rect x="22" y="18" width="56" height="22" rx="11" fill="url(#accent)" fill-opacity="0.7"/>
      <rect x="22" y="48" width="150" height="10" rx="5" fill="rgba(255,255,255,0.08)"/>
    </g>

    <g opacity="0.9">
      <path d="M320 90H660" stroke="rgba(255,255,255,0.12)" stroke-width="2" stroke-linecap="round"/>
      <path d="M320 190H720" stroke="rgba(255,255,255,0.12)" stroke-width="2" stroke-linecap="round"/>
      <path d="M320 290H600" stroke="rgba(255,255,255,0.12)" stroke-width="2" stroke-linecap="round"/>
      <circle cx="320" cy="90" r="4" fill="#4D82FF"/>
      <circle cx="320" cy="190" r="4" fill="#2A3DD6"/>
      <circle cx="320" cy="290" r="4" fill="#161BA9"/>
    </g>

    <g transform="translate(700 70)">
      <rect x="0" y="0" width="260" height="280" rx="18" fill="rgba(255,255,255,0.02)" stroke="rgba(255,255,255,0.06)"/>
      <rect x="26" y="30" width="150" height="12" rx="6" fill="rgba(255,255,255,0.09)"/>
      <rect x="26" y="56" width="200" height="10" rx="5" fill="rgba(255,255,255,0.07)"/>
      <rect x="26" y="90" width="210" height="40" rx="14" fill="rgba(0,0,0,0.32)" stroke="rgba(255,255,255,0.08)"/>
      <rect x="42" y="104" width="140" height="12" rx="6" fill="rgba(255,255,255,0.08)"/>
      <rect x="26" y="146" width="210" height="40" rx="14" fill="rgba(0,0,0,0.32)" stroke="rgba(255,255,255,0.08)"/>
      <rect x="42" y="160" width="120" height="12" rx="6" fill="rgba(255,255,255,0.08)"/>
      <rect x="26" y="216" width="210" height="42" rx="14" fill="url(#accent)" fill-opacity="0.9"/>
    </g>
  </g>
</svg>

