<svg width="1440" height="900" viewBox="0 0 1440 900" fill="none" xmlns="http://www.w3.org/2000/svg">
  <defs>
    <linearGradient id="g1" x1="0" y1="0" x2="0" y2="1">
      <stop offset="0" stop-color="#0B0B0B"/>
      <stop offset="1" stop-color="#000000"/>
    </linearGradient>
    <linearGradient id="accent" x1="0" y1="0" x2="1" y2="1">
      <stop offset="0" stop-color="#4D82FF" stop-opacity="0.95"/>
      <stop offset="0.45" stop-color="#2A3DD6" stop-opacity="0.92"/>
      <stop offset="1" stop-color="#161BA9" stop-opacity="0.9"/>
    </linearGradient>
    <filter id="blurGlow" x="-80" y="-80" width="1600" height="1040" filterUnits="userSpaceOnUse">
      <feGaussianBlur stdDeviation="28" result="b"/>
      <feColorMatrix in="b" type="matrix"
        values="1 0 0 0 0
                0 1 0 0 0
                0 0 1 0 0
                0 0 0 0.55 0" />
    </filter>
  </defs>

  <rect width="1440" height="900" fill="url(#g1)"/>

  <g opacity="0.8" filter="url(#blurGlow)">
    <circle cx="520" cy="140" r="180" fill="#161BA9" fill-opacity="0.35"/>
    <circle cx="1120" cy="240" r="220" fill="#2A3DD6" fill-opacity="0.22"/>
    <circle cx="940" cy="780" r="260" fill="#161BA9" fill-opacity="0.18"/>
  </g>

  <rect x="120" y="110" width="1200" height="680" rx="20" fill="rgba(255,255,255,0.03)" stroke="rgba(255,255,255,0.10)"/>
  <rect x="120" y="110" width="1200" height="54" rx="20" fill="rgba(0,0,0,0.30)"/>
  <circle cx="160" cy="137" r="6" fill="rgba(255,95,86,0.85)"/>
  <circle cx="180" cy="137" r="6" fill="rgba(255,189,46,0.85)"/>
  <circle cx="200" cy="137" r="6" fill="rgba(39,201,63,0.85)"/>

  <rect x="155" y="198" width="250" height="560" rx="14" fill="rgba(0,0,0,0.35)" stroke="rgba(255,255,255,0.08)"/>
  <rect x="185" y="235" width="190" height="14" rx="7" fill="rgba(255,255,255,0.10)"/>
  <rect x="185" y="262" width="160" height="10" rx="5" fill="rgba(255,255,255,0.08)"/>
  <rect x="185" y="305" width="200" height="34" rx="10" fill="rgba(255,255,255,0.04)" stroke="rgba(255,255,255,0.08)"/>
  <rect x="185" y="352" width="200" height="34" rx="10" fill="rgba(255,255,255,0.03)" stroke="rgba(255,255,255,0.06)"/>
  <rect x="185" y="399" width="200" height="34" rx="10" fill="rgba(255,255,255,0.03)" stroke="rgba(255,255,255,0.06)"/>
  <rect x="185" y="446" width="200" height="34" rx="10" fill="rgba(255,255,255,0.03)" stroke="rgba(255,255,255,0.06)"/>

  <rect x="430" y="198" width="855" height="180" rx="14" fill="rgba(0,0,0,0.35)" stroke="rgba(255,255,255,0.08)"/>
  <rect x="460" y="232" width="300" height="16" rx="8" fill="rgba(255,255,255,0.12)"/>
  <rect x="460" y="258" width="420" height="12" rx="6" fill="rgba(255,255,255,0.08)"/>
  <rect x="460" y="302" width="96" height="34" rx="10" fill="url(#accent)" fill-opacity="0.9"/>
  <rect x="566" y="302" width="110" height="34" rx="10" fill="rgba(255,255,255,0.04)" stroke="rgba(255,255,255,0.08)"/>

  <rect x="430" y="400" width="855" height="358" rx="14" fill="rgba(0,0,0,0.35)" stroke="rgba(255,255,255,0.08)"/>
  <rect x="460" y="434" width="140" height="12" rx="6" fill="rgba(255,255,255,0.10)"/>
  <rect x="1080" y="428" width="170" height="22" rx="11" fill="rgba(255,255,255,0.04)" stroke="rgba(255,255,255,0.08)"/>

  <g>
    <rect x="460" y="474" width="240" height="110" rx="12" fill="rgba(255,255,255,0.03)" stroke="rgba(255,255,255,0.07)"/>
    <rect x="725" y="474" width="250" height="110" rx="12" fill="rgba(255,255,255,0.03)" stroke="rgba(255,255,255,0.07)"/>
    <rect x="1000" y="474" width="285" height="110" rx="12" fill="rgba(255,255,255,0.03)" stroke="rgba(255,255,255,0.07)"/>

    <rect x="482" y="498" width="120" height="10" rx="5" fill="rgba(255,255,255,0.10)"/>
    <rect x="482" y="520" width="160" height="26" rx="10" fill="rgba(0,0,0,0.35)" stroke="rgba(255,255,255,0.06)"/>
    <rect x="482" y="554" width="200" height="10" rx="5" fill="rgba(255,255,255,0.07)"/>

    <rect x="747" y="498" width="140" height="10" rx="5" fill="rgba(255,255,255,0.10)"/>
    <rect x="747" y="520" width="150" height="26" rx="10" fill="rgba(0,0,0,0.35)" stroke="rgba(255,255,255,0.06)"/>
    <rect x="747" y="554" width="210" height="10" rx="5" fill="rgba(255,255,255,0.07)"/>

    <rect x="1022" y="498" width="150" height="10" rx="5" fill="rgba(255,255,255,0.10)"/>
    <rect x="1022" y="520" width="170" height="26" rx="10" fill="rgba(0,0,0,0.35)" stroke="rgba(255,255,255,0.06)"/>
    <rect x="1022" y="554" width="220" height="10" rx="5" fill="rgba(255,255,255,0.07)"/>
  </g>

  <g opacity="0.9">
    <rect x="460" y="612" width="825" height="124" rx="12" fill="rgba(0,0,0,0.28)" stroke="rgba(255,255,255,0.06)"/>
    <rect x="486" y="636" width="160" height="10" rx="5" fill="rgba(255,255,255,0.09)"/>
    <rect x="486" y="658" width="240" height="10" rx="5" fill="rgba(255,255,255,0.07)"/>

    <g transform="translate(486 688)">
      <rect x="0" y="0" width="26" height="40" rx="8" fill="url(#accent)"/>
      <rect x="36" y="8" width="26" height="32" rx="8" fill="url(#accent)" fill-opacity="0.9"/>
      <rect x="72" y="14" width="26" height="26" rx="8" fill="url(#accent)" fill-opacity="0.75"/>
      <rect x="108" y="4" width="26" height="36" rx="8" fill="url(#accent)" fill-opacity="0.95"/>
      <rect x="144" y="18" width="26" height="22" rx="8" fill="url(#accent)" fill-opacity="0.65"/>
      <rect x="180" y="6" width="26" height="34" rx="8" fill="url(#accent)" fill-opacity="0.92"/>
      <rect x="216" y="12" width="26" height="28" rx="8" fill="url(#accent)" fill-opacity="0.78"/>
      <rect x="252" y="2" width="26" height="38" rx="8" fill="url(#accent)" fill-opacity="0.96"/>
      <rect x="288" y="16" width="26" height="24" rx="8" fill="url(#accent)" fill-opacity="0.72"/>
      <rect x="324" y="8" width="26" height="32" rx="8" fill="url(#accent)" fill-opacity="0.88"/>
    </g>
  </g>
</svg>

