<svg width="135" height="29" viewBox="0 0 135 29" fill="none" xmlns="http://www.w3.org/2000/svg">
<g clip-path="url(#clip0_55335_5819)">
<path d="M50.8234 23.2014C48.6081 23.2014 46.8894 22.7334 45.6603 21.801C44.4312 20.8686 43.7867 19.5809 43.7268 17.9377H47.0162C47.055 18.5464 47.3719 19.1059 47.9601 19.6125C48.5482 20.1192 49.5132 20.3725 50.8551 20.3725C51.9926 20.3725 52.8836 20.1508 53.5352 19.704C54.1832 19.2572 54.5107 18.7012 54.5107 18.0292C54.5107 17.4205 54.2713 16.9385 53.7958 16.5831C53.3204 16.2278 52.5103 15.9885 51.3728 15.8689L49.7598 15.7176C48.0728 15.5346 46.738 15.0385 45.7554 14.2257C44.7693 13.413 44.2797 12.3187 44.2797 10.9395C44.2797 9.84524 44.5544 8.91988 45.1039 8.17045C45.6533 7.42102 46.4069 6.84047 47.3719 6.43584C48.3369 6.03122 49.4463 5.82715 50.7071 5.82715C52.6582 5.82715 54.229 6.25992 55.4299 7.12195C56.6274 7.98397 57.2472 9.2471 57.2895 10.9113H54.0318C53.9895 10.2815 53.6972 9.75376 53.1478 9.32803C52.5984 8.90229 51.7883 8.68767 50.7107 8.68767C49.6964 8.68767 48.918 8.89174 48.3792 9.29636C47.8403 9.70099 47.5727 10.2182 47.5727 10.848C47.5727 11.4145 47.7769 11.8613 48.182 12.1885C48.587 12.5122 49.2491 12.7269 50.1612 12.8289L51.7743 12.9802C53.6232 13.1843 55.0883 13.6945 56.1766 14.5178C57.2613 15.3411 57.8072 16.4811 57.8072 17.9412C57.8072 18.9968 57.5114 19.9186 56.9232 20.7103C56.3351 21.5019 55.518 22.1142 54.472 22.5504C53.426 22.9867 52.211 23.2049 50.8304 23.2049L50.8234 23.2014Z" fill="white"/>
<path d="M67.5241 23.2606C66.1012 23.2606 64.8651 23.0179 63.8085 22.5288C62.752 22.0433 61.8891 21.3994 61.22 20.5972C60.5508 19.7949 60.0472 18.8942 59.7126 17.8879C59.378 16.8852 59.209 15.8543 59.209 14.7987V14.2217C59.209 13.145 59.378 12.1071 59.7126 11.1008C60.0472 10.098 60.5508 9.19379 61.22 8.39158C61.8891 7.58937 62.7379 6.95253 63.7627 6.47402C64.7876 5.99902 65.9815 5.75977 67.3409 5.75977C69.1089 5.75977 70.5811 6.1468 71.7574 6.91734C72.9337 7.68789 73.8176 8.68713 74.4058 9.91508C74.9939 11.143 75.2898 12.466 75.2898 13.8874V15.3159H60.7304V12.9128H72.8843L71.9088 14.1302C71.9088 13.036 71.7362 12.086 71.3911 11.2838C71.0459 10.4816 70.5388 9.8623 69.8696 9.42601C69.2005 8.98972 68.3552 8.77158 67.3409 8.77158C66.3266 8.77158 65.4004 9.01435 64.6925 9.50342C63.9811 9.98897 63.4528 10.661 63.1077 11.5125C62.7625 12.3639 62.59 13.3702 62.59 14.5243C62.59 15.6185 62.7625 16.6002 63.1077 17.4622C63.4528 18.3242 63.9917 19.0033 64.7207 19.4994C65.4532 19.9955 66.3865 20.2453 67.5241 20.2453C68.6616 20.2453 69.5949 19.9955 70.3275 19.4994C71.06 19.0033 71.5038 18.4192 71.6658 17.7507H74.9869C74.7615 18.8661 74.3107 19.8407 73.631 20.671C72.9513 21.5014 72.0919 22.1418 71.0565 22.5886C70.0211 23.0355 68.8413 23.2571 67.5241 23.2571V23.2606Z" fill="white"/>
<path d="M77.7903 23.2012V0.5H81.3826V23.2012H77.7903Z" fill="white"/>
<path d="M85.2673 23.2012V0.5H88.8595V23.2012H85.2673Z" fill="white"/>
<path d="M92.2334 5.82715H95.8891V16.4776C95.8891 17.227 95.9842 17.8322 96.1779 18.2896C96.3716 18.747 96.6357 19.1023 96.9703 19.3557C97.3049 19.609 97.7064 19.7814 98.1748 19.8729C98.6432 19.9644 99.1503 20.0101 99.6962 20.0101C101.077 20.0101 102.073 19.7462 102.683 19.2185C103.292 18.6907 103.595 17.7688 103.595 16.4494V5.82715H107.251V16.5374C107.251 17.797 107.092 18.856 106.779 19.7181C106.465 20.5801 105.997 21.2768 105.377 21.801C104.757 22.3288 103.975 22.7053 103.031 22.9269C102.088 23.1486 100.985 23.2612 99.7279 23.2612C98.4706 23.2612 97.3964 23.1451 96.4526 22.9128C95.5087 22.6806 94.7269 22.2936 94.107 21.7553C93.4872 21.2169 93.0223 20.5133 92.7053 19.6407C92.3919 18.7681 92.2334 17.702 92.2334 16.4459V5.82715Z" fill="white"/>
<path d="M110.121 23.2009V5.75987H113.653V8.10317C114.203 7.31151 114.907 6.72393 115.77 6.3369C116.633 5.95338 117.499 5.75987 118.373 5.75987C119.45 5.75987 120.422 5.95338 121.296 6.3369C122.169 6.72393 122.898 7.38188 123.49 8.31428C124.138 7.40299 124.93 6.74856 125.867 6.35097C126.801 5.9569 127.787 5.75635 128.822 5.75635C130.791 5.75635 132.305 6.35449 133.362 7.55077C134.418 8.74705 134.947 10.362 134.947 12.3887V23.1939H131.291V12.8144C131.291 12.2866 131.235 11.794 131.122 11.3402C131.009 10.8828 130.826 10.4817 130.572 10.1368C130.319 9.79204 129.977 9.51759 129.551 9.31352C129.125 9.10945 128.607 9.01093 127.998 9.01093C126.758 9.01093 125.846 9.40148 125.258 10.1826C124.67 10.9637 124.374 12.0227 124.374 13.3633V23.1974H120.718V12.8179C120.718 12.2902 120.658 11.794 120.535 11.3261C120.412 10.8581 120.222 10.4535 119.958 10.1087C119.693 9.76389 119.352 9.49648 118.936 9.30297C118.521 9.10945 118.017 9.01445 117.429 9.01445C116.21 9.01445 115.298 9.40852 114.689 10.2002C114.08 10.9918 113.773 11.9946 113.773 13.212V23.1974H110.117L110.121 23.2009Z" fill="white"/>
<path d="M0.432373 10.8971C0.432373 5.15494 5.09179 0.5 10.8395 0.5H28.1353L23.652 7.49824H11.4805C9.49059 7.49824 8.12059 8.77896 8.00437 10.7423C7.88462 12.7865 9.55046 14.4965 11.5967 14.4965H19.0031L14.3191 21.4947H10.836C5.09179 21.4982 0.432373 16.8433 0.432373 11.1012V10.9006V10.8971ZM37.5845 18.0994C37.5845 23.8415 32.925 28.5 27.1738 28.5H9.88151L14.3649 21.5018H26.4941C28.484 21.5018 29.854 20.221 29.9702 18.2577C30.0899 16.2135 28.4241 14.5035 26.3779 14.5035H19.0102L23.6943 7.50528H27.1774C32.925 7.50528 37.588 12.1602 37.588 17.9059V18.1064L37.5845 18.0994Z" fill="white"/>
</g>
<defs>
<clipPath id="clip0_55335_5819">
<rect width="135" height="29" fill="white"/>
</clipPath>
</defs>
</svg>

